<?xml version="1.0" ?><!DOCTYPE svg  PUBLIC '-//W3C//DTD SVG 1.1//EN'  'http://www.w3.org/Graphics/SVG/1.1/DTD/svg11.dtd'><svg enable-background="new 0 0 64 64" height="64px" id="Disqus" version="1.1" viewBox="0 0 64 64" width="64px" xml:space="preserve" xmlns="http://www.w3.org/2000/svg" xmlns:xlink="http://www.w3.org/1999/xlink"><linearGradient gradientTransform="matrix(1 0 0 -1 -274 -299)" gradientUnits="userSpaceOnUse" id="Circle_Shadow_1_" x1="338.0293" x2="306.0293" y1="-362.9995" y2="-330.9995"><stop offset="0.3163" style="stop-color:#FFFFFF;stop-opacity:0"/><stop offset="0.3508" style="stop-color:#E9E9E9;stop-opacity:0.0504"/><stop offset="0.4543" style="stop-color:#ACACAC;stop-opacity:0.2018"/><stop offset="0.5572" style="stop-color:#787878;stop-opacity:0.3523"/><stop offset="0.6569" style="stop-color:#4D4D4D;stop-opacity:0.4981"/><stop offset="0.7528" style="stop-color:#2B2B2B;stop-opacity:0.6385"/><stop offset="0.8441" style="stop-color:#131313;stop-opacity:0.7719"/><stop offset="0.9286" style="stop-color:#050505;stop-opacity:0.8956"/><stop offset="1" style="stop-color:#000000"/></linearGradient><polygon enable-background="new    " fill="url(#Circle_Shadow_1_)" id="Circle_Shadow" opacity="0.2" points="64.029,64   64.029,30.059 49,15.029 15.059,48.971 30.088,64 "/><circle cx="32" cy="32" fill="#2E9FFF" id="Circle" r="24"/><g id="D_shadow"><g><defs><circle cx="32.029" cy="32" id="SVGID_1_" r="24"/></defs><clipPath id="SVGID_2_"><use overflow="visible" xlink:href="#SVGID_1_"/></clipPath><linearGradient gradientTransform="matrix(1 0 0 -1 -274 -299)" gradientUnits="userSpaceOnUse" id="SVGID_3_" x1="338.8105" x2="301.7357" y1="-380.3545" y2="-316.139"><stop offset="0.5459" style="stop-color:#000000;stop-opacity:0"/><stop offset="1" style="stop-color:#000000"/></linearGradient><path clip-path="url(#SVGID_2_)" d="M74.561,53.852    c-0.037-0.039-0.072-0.076-0.109-0.112c-0.033-0.033-0.065-0.067-0.1-0.101c-0.039-0.039-0.076-0.078-0.113-0.117    c-0.033-0.032-0.065-0.066-0.1-0.101c-0.037-0.038-0.074-0.075-0.111-0.112c-0.035-0.035-0.069-0.07-0.104-0.105    c-0.036-0.036-0.071-0.073-0.108-0.109c-0.035-0.035-0.069-0.072-0.105-0.107c-0.035-0.035-0.068-0.07-0.104-0.105    c-0.037-0.037-0.071-0.074-0.108-0.109c-0.034-0.035-0.065-0.069-0.101-0.104c-0.039-0.039-0.076-0.078-0.114-0.116    c-0.033-0.034-0.066-0.067-0.101-0.103c-0.039-0.037-0.074-0.075-0.113-0.113c-0.032-0.034-0.065-0.068-0.101-0.104    c-0.036-0.035-0.071-0.073-0.108-0.109c-0.034-0.035-0.068-0.07-0.104-0.105c-0.036-0.037-0.071-0.074-0.108-0.109    c-0.035-0.035-0.068-0.071-0.104-0.106c-0.035-0.034-0.07-0.071-0.105-0.106c-0.037-0.037-0.073-0.075-0.111-0.113    c-0.033-0.034-0.066-0.068-0.102-0.104c-0.037-0.037-0.072-0.074-0.108-0.109c-0.035-0.035-0.069-0.071-0.104-0.105    c-0.037-0.037-0.074-0.076-0.111-0.113c-0.031-0.032-0.063-0.065-0.096-0.099c-0.037-0.036-0.072-0.075-0.109-0.112    c-0.038-0.037-0.074-0.074-0.112-0.112c-0.033-0.034-0.065-0.068-0.101-0.103c-0.037-0.037-0.072-0.074-0.109-0.11    c-0.035-0.036-0.07-0.073-0.107-0.108c-0.033-0.035-0.066-0.07-0.103-0.104c-0.036-0.037-0.071-0.074-0.108-0.11    c-0.033-0.034-0.066-0.069-0.103-0.104c-0.037-0.037-0.075-0.076-0.113-0.114c-0.032-0.034-0.065-0.068-0.101-0.103    c-0.038-0.037-0.074-0.076-0.112-0.113c-0.033-0.034-0.065-0.068-0.101-0.104s-0.069-0.07-0.104-0.105    c-0.037-0.037-0.073-0.074-0.11-0.111c-0.035-0.036-0.069-0.073-0.105-0.107c-0.036-0.037-0.07-0.072-0.105-0.109    c-0.035-0.034-0.068-0.069-0.104-0.104c-0.037-0.036-0.074-0.075-0.111-0.112c-0.032-0.033-0.065-0.067-0.101-0.103    c-0.037-0.037-0.074-0.076-0.112-0.112c-0.034-0.035-0.067-0.07-0.103-0.104c-0.035-0.035-0.069-0.071-0.105-0.107    c-0.035-0.036-0.07-0.073-0.107-0.108c-0.035-0.035-0.068-0.071-0.104-0.106c-0.038-0.037-0.074-0.075-0.111-0.112    c-0.033-0.035-0.066-0.068-0.102-0.104c-0.038-0.037-0.074-0.075-0.111-0.113c-0.033-0.033-0.066-0.068-0.102-0.104    c-0.035-0.034-0.068-0.069-0.104-0.104c-0.037-0.036-0.074-0.075-0.111-0.112c-0.036-0.037-0.072-0.074-0.108-0.109    c-0.034-0.035-0.067-0.069-0.103-0.104c-0.035-0.035-0.07-0.072-0.105-0.107c-0.037-0.037-0.074-0.075-0.111-0.112    c-0.033-0.032-0.063-0.065-0.098-0.101c-0.038-0.038-0.076-0.077-0.113-0.115c-0.035-0.035-0.07-0.071-0.105-0.105    c-0.035-0.035-0.07-0.072-0.105-0.107s-0.068-0.07-0.104-0.105s-0.07-0.072-0.105-0.107c-0.037-0.036-0.072-0.073-0.107-0.109    c-0.036-0.036-0.071-0.072-0.107-0.107c-0.035-0.037-0.068-0.072-0.105-0.107c-0.033-0.035-0.068-0.071-0.104-0.105    c-0.037-0.037-0.072-0.076-0.109-0.113c-0.035-0.033-0.067-0.068-0.104-0.104c-0.035-0.035-0.07-0.072-0.105-0.109    c-0.037-0.037-0.074-0.073-0.11-0.11c-0.034-0.034-0.066-0.067-0.101-0.103c-0.037-0.037-0.074-0.076-0.11-0.112    c-0.034-0.034-0.067-0.069-0.103-0.104c-0.037-0.037-0.074-0.076-0.111-0.113c-0.034-0.033-0.067-0.068-0.104-0.104    c-0.035-0.036-0.07-0.072-0.105-0.107c-0.037-0.037-0.073-0.076-0.111-0.113c-0.033-0.033-0.064-0.067-0.1-0.102    c-0.037-0.037-0.073-0.076-0.111-0.113c-0.033-0.033-0.066-0.067-0.102-0.103c-0.037-0.038-0.074-0.077-0.112-0.114    c-0.033-0.035-0.066-0.068-0.103-0.104c-0.035-0.037-0.07-0.074-0.107-0.109c-0.036-0.037-0.07-0.072-0.106-0.109    c-0.034-0.034-0.069-0.07-0.104-0.104c-0.035-0.036-0.07-0.073-0.105-0.108s-0.07-0.071-0.105-0.107    c-0.037-0.036-0.071-0.073-0.107-0.109c-0.035-0.035-0.068-0.07-0.104-0.104c-0.037-0.037-0.073-0.075-0.11-0.112    c-0.034-0.033-0.068-0.068-0.103-0.104c-0.037-0.036-0.072-0.073-0.109-0.11c-0.035-0.035-0.069-0.071-0.104-0.106    c-0.037-0.035-0.07-0.071-0.106-0.106c-0.035-0.035-0.069-0.072-0.105-0.106c-0.034-0.037-0.069-0.072-0.106-0.108    c-0.035-0.036-0.069-0.072-0.105-0.108c-0.035-0.035-0.068-0.07-0.105-0.105c-0.036-0.037-0.072-0.075-0.11-0.113    c-0.033-0.034-0.065-0.068-0.103-0.104c-0.035-0.035-0.07-0.074-0.106-0.109c-0.035-0.034-0.067-0.069-0.103-0.104    c-0.039-0.039-0.076-0.078-0.115-0.117c-0.032-0.033-0.064-0.066-0.098-0.1c-0.037-0.037-0.072-0.074-0.108-0.109    c-0.037-0.037-0.073-0.076-0.111-0.113c-0.032-0.033-0.065-0.066-0.099-0.1c-0.036-0.037-0.072-0.076-0.108-0.111    c-0.037-0.037-0.073-0.075-0.11-0.111c-0.035-0.036-0.068-0.07-0.104-0.107c-0.035-0.035-0.069-0.07-0.104-0.105    c-0.035-0.034-0.067-0.07-0.104-0.104c-0.037-0.039-0.075-0.078-0.113-0.115c-0.033-0.034-0.066-0.068-0.102-0.104    s-0.07-0.072-0.105-0.107c-0.035-0.037-0.072-0.073-0.107-0.109c-0.036-0.036-0.071-0.073-0.107-0.109    c-0.033-0.033-0.068-0.07-0.104-0.104c-0.035-0.036-0.07-0.073-0.106-0.109c-0.037-0.037-0.073-0.074-0.11-0.111    c-0.035-0.034-0.068-0.069-0.104-0.104c-0.036-0.035-0.07-0.071-0.105-0.106s-0.067-0.07-0.104-0.104    c-0.038-0.038-0.075-0.077-0.113-0.115c-0.033-0.032-0.066-0.067-0.101-0.102c-0.036-0.036-0.07-0.073-0.107-0.109    c-0.036-0.036-0.073-0.075-0.11-0.112c-0.034-0.035-0.068-0.069-0.104-0.104s-0.069-0.071-0.104-0.106    c-0.034-0.035-0.068-0.07-0.104-0.105c-0.038-0.038-0.075-0.077-0.114-0.115c-0.033-0.033-0.065-0.068-0.101-0.102    c-0.035-0.036-0.069-0.072-0.104-0.107c-0.035-0.037-0.072-0.074-0.107-0.109c-0.037-0.037-0.073-0.074-0.11-0.111    c-0.032-0.034-0.065-0.068-0.101-0.104c-0.036-0.035-0.07-0.072-0.106-0.106c-0.036-0.037-0.071-0.075-0.11-0.112    c-0.033-0.035-0.067-0.07-0.104-0.105c-0.033-0.035-0.066-0.069-0.104-0.104c-0.037-0.038-0.072-0.076-0.109-0.113    c-0.036-0.035-0.072-0.072-0.107-0.109c-0.035-0.034-0.068-0.068-0.104-0.104c-0.034-0.033-0.068-0.07-0.104-0.104    c-0.039-0.039-0.076-0.078-0.113-0.116c-0.034-0.033-0.066-0.067-0.102-0.103c-0.037-0.037-0.072-0.074-0.109-0.111    c-0.034-0.035-0.068-0.07-0.104-0.105s-0.071-0.072-0.108-0.109c-0.035-0.034-0.067-0.069-0.104-0.104    c-0.037-0.036-0.072-0.075-0.109-0.112c-0.035-0.033-0.068-0.068-0.104-0.104c-0.036-0.036-0.071-0.073-0.108-0.109    c-0.033-0.035-0.068-0.07-0.103-0.104c-0.037-0.037-0.072-0.074-0.109-0.11c-0.036-0.035-0.071-0.072-0.106-0.109    c-0.034-0.034-0.068-0.069-0.104-0.104c-0.036-0.036-0.071-0.071-0.106-0.108c-0.035-0.035-0.07-0.072-0.106-0.107    c-0.035-0.036-0.069-0.071-0.104-0.105c-0.037-0.037-0.072-0.074-0.109-0.111c-0.034-0.034-0.066-0.069-0.102-0.104    c-0.037-0.036-0.074-0.075-0.11-0.112c-0.034-0.033-0.066-0.067-0.101-0.103c-0.039-0.038-0.076-0.077-0.115-0.115    c-0.033-0.034-0.067-0.069-0.103-0.104c-0.034-0.035-0.069-0.07-0.104-0.105c-0.036-0.036-0.071-0.073-0.107-0.108    c-0.036-0.037-0.07-0.073-0.107-0.109c-0.035-0.036-0.07-0.072-0.105-0.107s-0.068-0.07-0.104-0.104    c-0.037-0.037-0.072-0.074-0.108-0.11c-0.036-0.037-0.071-0.072-0.106-0.109c-0.037-0.035-0.072-0.071-0.107-0.107    c-0.033-0.034-0.066-0.068-0.1-0.102c-0.039-0.039-0.074-0.077-0.113-0.114c-0.034-0.035-0.068-0.07-0.104-0.104    c-0.035-0.037-0.068-0.072-0.104-0.107c-0.037-0.037-0.073-0.074-0.11-0.111c-0.034-0.035-0.069-0.07-0.104-0.105    s-0.069-0.072-0.106-0.108c-0.035-0.036-0.069-0.072-0.106-0.108c-0.033-0.033-0.066-0.068-0.101-0.103    c-0.037-0.038-0.074-0.076-0.11-0.113c-0.035-0.034-0.07-0.071-0.105-0.106s-0.07-0.071-0.105-0.107    c-0.037-0.036-0.072-0.072-0.107-0.109c-0.035-0.035-0.068-0.069-0.104-0.104c-0.036-0.036-0.071-0.073-0.108-0.108    c-0.034-0.037-0.069-0.072-0.104-0.107c-0.036-0.036-0.071-0.072-0.106-0.108c-0.037-0.036-0.072-0.073-0.108-0.11    c-0.034-0.033-0.067-0.068-0.103-0.104c-0.035-0.036-0.07-0.072-0.105-0.107c-0.038-0.039-0.074-0.076-0.111-0.112    c-0.033-0.035-0.066-0.069-0.102-0.104c-0.036-0.035-0.07-0.072-0.105-0.107c-0.037-0.037-0.074-0.075-0.111-0.112    c-0.032-0.034-0.065-0.068-0.1-0.102c-0.037-0.038-0.074-0.077-0.111-0.114c-0.035-0.035-0.069-0.07-0.104-0.105    c-0.035-0.036-0.069-0.072-0.106-0.108c-0.035-0.037-0.07-0.073-0.107-0.11c-0.034-0.035-0.066-0.069-0.102-0.104    c-0.037-0.036-0.071-0.073-0.107-0.109c-0.035-0.036-0.07-0.073-0.105-0.109c-0.037-0.037-0.074-0.075-0.11-0.112    c-0.035-0.036-0.07-0.072-0.106-0.107c-0.033-0.034-0.066-0.069-0.104-0.104c-0.034-0.036-0.069-0.073-0.105-0.108    c-0.037-0.038-0.072-0.075-0.111-0.112c-0.031-0.033-0.063-0.067-0.098-0.1c-0.037-0.038-0.072-0.076-0.109-0.113    c-0.037-0.036-0.07-0.072-0.105-0.107c-0.036-0.036-0.07-0.073-0.107-0.108c-0.035-0.036-0.069-0.072-0.104-0.108    c-0.037-0.038-0.074-0.075-0.11-0.112c-0.035-0.034-0.068-0.069-0.103-0.103c-0.036-0.036-0.07-0.072-0.106-0.108    c-0.035-0.036-0.07-0.072-0.105-0.108s-0.07-0.072-0.105-0.108s-0.07-0.073-0.107-0.109c-0.035-0.036-0.07-0.073-0.106-0.108    c-0.035-0.036-0.069-0.072-0.104-0.107c-0.035-0.036-0.069-0.072-0.105-0.107c-0.036-0.036-0.07-0.073-0.107-0.109    c-0.035-0.036-0.069-0.072-0.105-0.108c-0.035-0.036-0.07-0.072-0.105-0.107c-0.035-0.036-0.068-0.071-0.104-0.106    c-0.037-0.037-0.072-0.074-0.108-0.11c-0.035-0.036-0.07-0.072-0.107-0.108c-0.034-0.036-0.069-0.073-0.105-0.108    c-0.035-0.036-0.068-0.071-0.104-0.106s-0.069-0.071-0.104-0.106c-0.036-0.037-0.073-0.075-0.11-0.112    c-0.035-0.036-0.069-0.072-0.104-0.107c-0.035-0.035-0.069-0.071-0.104-0.106c-0.035-0.036-0.07-0.073-0.106-0.109    s-0.071-0.073-0.106-0.108c-0.035-0.036-0.069-0.072-0.105-0.107c-0.034-0.035-0.068-0.071-0.104-0.105    c-0.037-0.038-0.074-0.077-0.113-0.114c-0.033-0.034-0.065-0.068-0.1-0.102c-0.037-0.038-0.074-0.076-0.111-0.113    c-0.034-0.035-0.067-0.07-0.104-0.104c-0.035-0.037-0.07-0.074-0.107-0.11c-0.035-0.036-0.069-0.072-0.105-0.107    c-0.035-0.036-0.07-0.072-0.105-0.107c-0.035-0.036-0.069-0.072-0.104-0.107c-0.036-0.037-0.071-0.074-0.108-0.11    c-0.035-0.037-0.072-0.074-0.108-0.11c-0.033-0.034-0.065-0.068-0.101-0.102c-0.037-0.038-0.072-0.076-0.111-0.113    c-0.033-0.035-0.067-0.07-0.104-0.105c-0.035-0.037-0.072-0.074-0.107-0.11c-0.034-0.035-0.067-0.069-0.103-0.104    c-0.036-0.037-0.073-0.075-0.11-0.112c-0.035-0.036-0.069-0.073-0.105-0.108c-0.035-0.036-0.07-0.071-0.105-0.106    c-0.033-0.035-0.066-0.07-0.103-0.105c-0.039-0.039-0.077-0.079-0.116-0.118c-0.033-0.033-0.064-0.066-0.099-0.099    c-0.036-0.037-0.071-0.074-0.108-0.11c-0.035-0.036-0.068-0.072-0.104-0.107c-0.036-0.036-0.071-0.073-0.107-0.109    c-0.035-0.037-0.07-0.073-0.107-0.109c-0.035-0.036-0.069-0.072-0.105-0.107c-0.035-0.036-0.068-0.071-0.104-0.106    c-0.037-0.036-0.07-0.072-0.106-0.108c-0.037-0.037-0.073-0.075-0.11-0.112c-0.033-0.034-0.065-0.069-0.101-0.103    c-0.036-0.037-0.072-0.074-0.108-0.11c-0.035-0.036-0.07-0.072-0.105-0.108c-0.036-0.036-0.071-0.073-0.107-0.108    c-0.035-0.035-0.068-0.071-0.104-0.106c-0.035-0.036-0.069-0.071-0.104-0.106c-0.039-0.039-0.076-0.077-0.113-0.115    c-0.033-0.034-0.066-0.068-0.102-0.102c-0.035-0.036-0.07-0.073-0.107-0.109c-0.035-0.035-0.067-0.071-0.104-0.106    c-0.037-0.039-0.074-0.077-0.113-0.115c-0.033-0.034-0.066-0.069-0.102-0.103c-0.035-0.036-0.069-0.072-0.105-0.107    c-0.035-0.036-0.068-0.072-0.104-0.107c-0.036-0.037-0.071-0.073-0.106-0.109c-0.037-0.038-0.074-0.076-0.111-0.113    c-0.033-0.033-0.065-0.067-0.1-0.1c-0.035-0.037-0.072-0.075-0.107-0.111c-0.037-0.037-0.073-0.074-0.109-0.11    c-0.035-0.035-0.068-0.071-0.104-0.105c-0.037-0.036-0.071-0.073-0.107-0.109c-0.034-0.035-0.068-0.071-0.104-0.105    c-0.037-0.037-0.071-0.074-0.108-0.111c-0.035-0.036-0.07-0.072-0.104-0.107c-0.035-0.035-0.07-0.072-0.105-0.107    c-0.037-0.037-0.072-0.073-0.107-0.11C39.945,18.707,36.173,17,32,17c-8.284,0-15,6.715-15,15c0,2.82,0.793,5.451,2.147,7.705    L17,44l0.175-0.029l-0.069,0.139l0.174-0.029l-0.068,0.137l0.175-0.029l-0.069,0.139l0.175-0.029l-0.068,0.137l0.174-0.029    l-0.069,0.139l0.175-0.029l-0.068,0.137l0.176-0.028l-0.069,0.138l0.174-0.029l-0.068,0.138l0.175-0.029l-0.069,0.138l0.175-0.028    l-0.068,0.137l0.175-0.028l-0.069,0.137l0.175-0.028l-0.069,0.138l0.175-0.029l-0.068,0.138l0.175-0.029l-0.069,0.138l0.175-0.028    l-0.068,0.137L18.77,45.6l-0.069,0.137l0.174-0.028l-0.068,0.138l0.175-0.029l-0.069,0.138l0.176-0.029l-0.069,0.138l0.174-0.028    l-0.068,0.137l0.175-0.028l-0.069,0.138l0.175-0.029l-0.068,0.138l0.175-0.029l-0.069,0.138l0.174-0.029l-0.068,0.138l0.175-0.029    l-0.069,0.138l0.175-0.028l-0.069,0.138l0.175-0.029l-0.068,0.138l0.175-0.029l-0.069,0.138l0.174-0.028l-0.068,0.137l0.175-0.029    l-0.069,0.138l0.175-0.028l-0.069,0.138l0.174-0.029L20.4,47.475l0.175-0.029l-0.068,0.137l0.175-0.029l-0.069,0.139l0.175-0.029    L20.719,47.8l0.176-0.028l-0.069,0.138L21,47.88l-0.068,0.138l0.175-0.029l-0.068,0.137l0.175-0.029l-0.069,0.139l0.174-0.029    l-0.068,0.137l0.175-0.029l-0.069,0.139l0.175-0.029l-0.068,0.137l0.176-0.028l-0.069,0.139l0.174-0.028l-0.068,0.137l0.175-0.029    l-0.068,0.137l0.175-0.029l-0.069,0.139l0.175-0.029l-0.069,0.139l0.174-0.029l-0.068,0.137l0.175-0.029l-0.068,0.137l0.175-0.028    l-0.069,0.138l0.175-0.029l-0.069,0.139l0.176-0.029l-0.069,0.139l0.174-0.029l-0.068,0.137l0.176-0.029l-0.069,0.139l0.175-0.029    l-0.068,0.137l0.174-0.029l-0.068,0.138l0.175-0.028l-0.069,0.137l0.176-0.028l-0.069,0.138l0.174-0.029l-0.068,0.138l0.175-0.029    l-0.069,0.138l0.175-0.029l-0.068,0.138l0.175-0.028l-0.069,0.137l0.175-0.028l-0.069,0.138l0.174-0.029l-0.068,0.138l0.175-0.029    l-0.069,0.138l0.175-0.028l-0.068,0.137l0.175-0.028l-0.069,0.137l0.175-0.028l-0.068,0.137l0.175-0.028l-0.069,0.138l0.175-0.029    L24.443,51.6l0.175-0.029l-0.069,0.138l0.174-0.028l-0.068,0.137l0.175-0.029l-0.069,0.139l0.175-0.029l-0.069,0.138l0.175-0.029    l-0.068,0.138l0.175-0.029l-0.069,0.138l0.174-0.028l-0.068,0.137l0.174-0.029l-0.068,0.137l0.176-0.029l-0.069,0.14l0.174-0.029    l-0.068,0.138l0.175-0.029l-0.069,0.138l0.175-0.028l-0.068,0.137l0.175-0.029l-0.069,0.139l0.175-0.029l-0.068,0.137l0.175-0.029    l-0.069,0.139l0.174-0.029l-0.068,0.137l0.175-0.029l-0.069,0.139l0.176-0.029l-0.069,0.139l0.174-0.029l-0.068,0.137l0.175-0.029    l-0.069,0.139l0.175-0.029l-0.068,0.137l0.175-0.029l-0.069,0.139l0.174-0.029l-0.068,0.137l0.175-0.028l-0.069,0.138l0.175-0.029    L27.1,54.257l0.175-0.028l-0.069,0.138l0.175-0.029l-0.068,0.138l0.174-0.029l-0.069,0.138l0.176-0.028l-0.069,0.137L27.7,54.66    l-0.069,0.138l0.174-0.028l-0.068,0.137l0.175-0.029l-0.068,0.137l0.175-0.029l-0.069,0.139l0.175-0.029l-0.069,0.139l0.175-0.029    l-0.068,0.137l0.174-0.029l-0.068,0.138l0.176-0.029l-0.069,0.138l0.176-0.029l-0.069,0.139l0.174-0.029l-0.068,0.137l0.175-0.028    l-0.069,0.138l0.175-0.029l-0.068,0.138l0.175-0.029L28.908,56.1l0.174-0.029l-0.069,0.13l0.175-0.029l-0.069,0.138l0.175-0.029    l-0.069,0.139l0.175-0.029l-0.068,0.137l0.174-0.028l-0.068,0.137l0.175-0.028l-0.069,0.138l0.176-0.029l-0.069,0.138l0.175-0.028    l-0.068,0.137l0.174-0.028l-0.069,0.137l0.175-0.028l-0.068,0.137l0.176-0.028l-0.069,0.138l0.175-0.029l-0.069,0.138l0.175-0.028    l-0.068,0.137l0.175-0.028l-0.068,0.137l0.175-0.029l-0.069,0.139l0.176-0.029L30.61,57.83l0.174-0.029l-0.068,0.137l0.174-0.028    l-0.068,0.137l0.175-0.028l-0.068,0.137l0.176-0.029l-0.069,0.139l0.174-0.029l-0.07,0.125l0.174-0.028l-0.068,0.137l0.176-0.028    l-0.069,0.138l0.175-0.029l-0.069,0.138l0.174-0.028l-0.068,0.137l0.175-0.028l-0.068,0.137l0.175-0.029l-0.069,0.139l0.175-0.029    l-0.069,0.138l0.175-0.029l-0.068,0.138l0.174-0.029l-0.068,0.137l0.176-0.029l-0.069,0.139l0.175-0.028l-0.068,0.138l0.174-0.029    l-0.068,0.137l0.175-0.029l-0.068,0.137l0.177-0.028l-0.069,0.139l0.176-0.028l-0.068,0.138l0.175-0.029l-0.067,0.138l0.174-0.029    l-0.067,0.137l0.176-0.029l-0.069,0.139l0.176-0.029l-0.068,0.137l0.174-0.029l-0.068,0.139l0.176-0.029l-0.068,0.139l0.176-0.029    l-0.068,0.137l0.175-0.029l-0.068,0.137l0.175-0.028L33.7,60.965l0.174-0.029l-0.067,0.139l0.174-0.029l-0.067,0.137l0.175-0.029    l-0.068,0.139l0.176-0.029l-0.068,0.137l0.175-0.028l-0.067,0.138l0.175-0.029l-0.068,0.138l0.175-0.029l-0.068,0.138l0.175-0.028    l-0.068,0.138l0.177-0.029l-0.068,0.137l0.174-0.028l-0.068,0.138l0.176-0.029l-0.068,0.138l0.175-0.029l-0.067,0.138l0.174-0.028    l-0.067,0.137l0.175-0.028l-0.068,0.137l0.176-0.028l-0.068,0.138l0.176-0.029l-0.068,0.138l0.174-0.029l-0.068,0.138l0.176-0.028    l-0.068,0.137l0.175-0.028l-0.067,0.138l0.174-0.029l-0.067,0.138l0.175-0.029l-0.068,0.138l0.175-0.029l-0.068,0.138l0.175-0.029    l-0.068,0.138l0.176-0.028l-0.068,0.138l0.176-0.029l-0.09,0.108l0.174-0.029l-0.067,0.138l0.175-0.028l-0.068,0.137l0.176-0.029    l-0.068,0.139l0.176-0.029l-0.068,0.137l0.175-0.029l-0.068,0.139l0.175-0.029l-0.068,0.138l0.175-0.028l-0.067,0.137l0.174-0.029    l-0.067,0.139l0.175-0.029l-0.068,0.137l0.176-0.029l-0.068,0.139l0.175-0.029l-0.067,0.137l0.175-0.029l-0.068,0.139l0.175-0.029    l-0.068,0.139l0.175-0.029l-0.068,0.137l0.175-0.029l-0.067,0.139l0.175-0.029l-0.068,0.137l0.176-0.029l-0.068,0.139l0.175-0.029    l-0.067,0.137l0.174-0.028l-0.067,0.138l0.175-0.029l-0.068,0.139l0.176-0.029l-0.068,0.137l0.174-0.029L38.7,66.039l0.175-0.029    l-0.068,0.137l0.176-0.028L38.9,66.242l0.175-0.029l-0.068,0.137l0.175-0.029l-0.068,0.139l0.175-0.029l-0.067,0.137l0.174-0.028    l-0.067,0.138l0.175-0.029l-0.068,0.139l0.176-0.029l-0.068,0.137l0.175-0.028l-0.067,0.138l0.175-0.029l-0.068,0.137l0.175-0.028    l-0.068,0.138l0.176-0.029l-0.068,0.138l0.176-0.029L40.07,67.43l0.174-0.029l-0.068,0.139l0.176-0.029l-0.068,0.137l0.175-0.028    l-0.067,0.138l0.174-0.029l-0.067,0.138l0.175-0.029l-0.068,0.138l0.174-0.029l-0.067,0.138l0.176-0.029l-0.067,0.138l0.174-0.028    l-0.068,0.138L41.1,68.27l-0.068,0.138l0.175-0.029l-0.067,0.138l0.174-0.029l-0.067,0.138l0.175-0.028l-0.068,0.137l0.176-0.028    l-0.068,0.137l0.175-0.028l-0.067,0.138l0.175-0.029l-0.068,0.138l0.175-0.028l-0.068,0.137l0.175-0.028l-0.068,0.137l0.175-0.029    l-0.067,0.138l0.175-0.028L42.1,69.493l0.176-0.029l-0.068,0.138l0.175-0.029l-0.067,0.138l0.174-0.028l-0.068,0.137l0.175-0.029    l-0.067,0.139l0.175-0.029l-0.068,0.137l0.175-0.029l-0.067,0.139l0.175-0.029l-0.068,0.138l0.176-0.028l-0.068,0.137l0.174-0.029    l-0.068,0.137l0.178-0.029l-0.069,0.139l0.175-0.029l-0.068,0.139l0.175-0.029l-0.068,0.137l0.175-0.029l-0.068,0.139l0.176-0.029    l-0.068,0.137l0.176-0.029l-0.068,0.139l0.175-0.029l-0.067,0.137l0.174-0.028l-0.067,0.138l0.174-0.029l-0.067,0.139l0.174-0.029    l-0.067,0.137l0.175-0.029l-0.068,0.139l0.176-0.029l-0.068,0.137l0.176-0.028l-0.068,0.138l0.175-0.029l-0.067,0.138l0.174-0.029    l-0.068,0.138l0.175-0.029l-0.067,0.139l0.174-0.029l-0.067,0.137l0.175-0.028l-0.068,0.137l0.176-0.028l-0.068,0.138l0.176-0.029    l-0.068,0.138l0.175-0.028l-0.067,0.137l0.174-0.028l-0.067,0.137l0.175-0.028l-0.068,0.137l0.174-0.028l-0.067,0.138l0.175-0.029    l-0.068,0.138l0.176-0.029l-0.068,0.138l0.176-0.028L45.947,73.4l0.175-0.028l-0.068,0.138l0.175-0.029l-0.067,0.138l0.174-0.029    l-0.067,0.138l0.174-0.029l-0.1,0.103l0.176-0.028l-0.068,0.137l0.175-0.029l-0.067,0.139l0.174-0.029l-0.067,0.137l0.175-0.029    l-0.068,0.139l0.176-0.029l-0.068,0.138l0.175-0.028l-0.067,0.137l0.175-0.029l-0.068,0.139l0.175-0.029l-0.068,0.137l0.175-0.029    l-0.067,0.139l0.174-0.029l-0.067,0.137l0.175-0.029l-0.068,0.139l0.176-0.029l-0.068,0.139l0.175-0.029l-0.067,0.137l0.174-0.029    l-0.068,0.139l0.176-0.029l-0.068,0.137l0.175-0.029l-0.068,0.139l0.175-0.029l-0.067,0.137l0.175-0.028l-0.068,0.138l0.176-0.029    l-0.068,0.139l0.175-0.029l-0.067,0.137l0.174-0.029l-0.067,0.139l0.175-0.029l-0.068,0.137l0.175-0.028L48.8,76.297l0.175-0.029    l-0.068,0.139l0.176-0.029L49,76.499l5.008-0.835c2.654,2.377,6.148,3.835,9.992,3.835c8.284,0,15-6.716,15-15    C79,60.334,77.301,56.566,74.561,53.852z" enable-background="new    " fill="url(#SVGID_3_)" opacity="0.3"/></g></g><g id="D"><path d="M32,17c-8.284,0-15,6.715-15,15c0,2.82,0.793,5.451,2.147,7.705L17,44l5.008-0.835   C24.662,45.542,28.157,47,32,47c8.284,0,15-6.716,15-15C47,23.715,40.284,17,32,17z M33,39h-6V25h6c5.111,0,7,2.795,7,7   C40,36.203,38.15,39,33,39z" fill="#FFFFFF"/><path d="M33,28h-3v8h3c2.371,0,4-1.648,4-4C37,29.668,35.371,28,33,28z" fill="#FFFFFF"/></g></svg>